<svg id="svg" version="1.1" xmlns="http://www.w3.org/2000/svg" xmlns:xlink="http://www.w3.org/1999/xlink" width="400" height="400" viewBox="0, 0, 400,400"><g id="svgg"><path id="path0" d="M56.500 44.246 C 56.683 44.435,83.458 64.340,116.000 88.480 C 179.580 135.645,177.065 133.668,175.824 135.504 C 175.136 136.521,130.847 173.707,130.732 173.364 C 130.525 172.741,129.878 172.902,115.000 177.279 C 107.025 179.625,92.302 183.934,82.282 186.855 C 70.221 190.371,63.947 192.350,63.720 192.710 C 63.532 193.009,58.501 208.445,52.540 227.013 L 41.703 260.772 51.901 295.636 C 57.509 314.811,62.223 330.639,62.376 330.810 C 62.542 330.996,76.910 327.198,98.310 321.310 C 120.849 315.110,133.851 311.384,133.650 311.184 C 132.887 310.420,132.446 310.654,158.167 298.184 C 177.959 288.588,175.234 289.999,178.942 287.422 C 181.241 285.823,181.976 285.457,182.122 285.838 C 182.398 286.557,217.589 286.590,217.865 285.872 C 218.042 285.409,223.691 288.946,223.944 289.679 C 224.006 289.856,224.277 290.000,224.547 290.000 C 224.999 290.000,254.773 304.342,263.083 308.563 C 266.674 310.387,266.935 310.595,266.354 311.183 C 266.157 311.383,279.249 315.132,301.698 321.306 C 322.811 327.113,337.467 330.987,337.630 330.806 C 337.782 330.638,342.521 314.810,348.163 295.632 L 358.419 260.765 347.513 227.132 C 341.515 208.635,336.413 193.195,336.177 192.822 C 335.832 192.280,329.174 190.225,302.956 182.567 C 268.609 172.534,269.467 172.767,269.256 173.397 C 269.009 174.141,224.000 135.756,224.000 134.800 C 224.000 132.917,225.456 131.790,284.270 88.167 C 316.897 63.967,343.549 44.119,343.495 44.060 C 343.441 44.001,335.171 47.030,325.115 50.791 C 315.060 54.552,292.361 63.037,274.672 69.648 L 242.511 81.667 200.034 81.667 L 157.557 81.667 107.362 62.948 C 50.930 41.903,56.057 43.789,56.500 44.246 M168.549 231.917 C 171.122 237.371,173.201 241.871,173.169 241.916 C 173.068 242.062,140.674 232.507,140.683 232.333 C 140.695 232.088,162.742 222.070,163.352 222.032 C 163.715 222.010,165.274 224.974,168.549 231.917 M248.417 227.197 C 254.421 229.923,259.333 232.236,259.333 232.335 C 259.333 232.466,232.245 240.558,227.262 241.916 C 226.797 242.042,233.326 227.662,236.016 222.638 C 236.504 221.725,235.801 221.467,248.417 227.197 " stroke="none" fill="#e97a13" fill-rule="evenodd"></path><path id="path1" d="M152.421 227.129 C 146.328 229.900,141.342 232.242,141.341 232.333 C 141.339 232.541,172.446 241.665,172.607 241.504 C 172.724 241.387,166.141 227.213,164.419 223.873 L 163.500 222.091 152.421 227.129 M231.885 231.726 C 229.355 237.044,227.342 241.453,227.411 241.522 C 227.591 241.702,258.667 232.567,258.667 232.334 C 258.667 232.228,253.754 229.910,247.750 227.182 C 241.746 224.455,236.755 222.185,236.660 222.139 C 236.564 222.093,234.416 226.407,231.885 231.726 M179.167 287.379 C 177.883 288.300,176.653 289.155,176.434 289.280 C 176.075 289.484,173.000 314.365,173.000 317.059 C 173.000 318.360,173.624 318.247,175.167 316.667 L 176.469 315.333 199.890 315.333 L 223.311 315.333 225.029 316.859 C 225.974 317.699,226.875 318.258,227.031 318.102 C 227.187 317.947,226.569 311.747,225.657 304.326 C 224.746 296.905,224.000 290.578,224.000 290.267 C 224.000 289.606,218.238 285.453,218.061 285.985 C 217.903 286.458,182.000 286.473,182.000 286.000 C 182.000 285.441,181.592 285.640,179.167 287.379 " stroke="none" fill="#12181c" fill-rule="evenodd"></path><path id="path2" d="M163.156 295.704 C 156.745 298.841,147.412 303.409,142.417 305.855 C 137.421 308.301,133.333 310.442,133.333 310.613 C 133.333 311.721,147.239 322.476,161.412 332.329 L 175.324 342.000 199.952 342.000 L 224.580 342.000 238.540 332.325 C 252.511 322.643,266.667 311.735,266.667 310.653 C 266.667 310.160,225.510 290.000,224.504 290.000 C 224.085 290.000,224.010 290.234,224.157 291.083 C 224.489 293.007,227.333 316.675,227.333 317.518 C 227.333 318.659,226.788 318.540,224.962 317.000 L 223.380 315.667 199.925 315.667 L 176.469 315.667 175.167 317.000 C 173.879 318.318,173.214 318.616,172.854 318.034 C 172.753 317.869,173.344 311.799,174.168 304.544 C 175.845 289.780,175.829 290.000,175.239 290.000 C 175.004 290.000,169.567 292.567,163.156 295.704 " stroke="none" fill="#ceb6a6" fill-rule="evenodd"></path><path id="path3" d="M285.000 87.820 C 224.593 132.645,224.471 132.738,224.170 134.500 C 223.965 135.697,268.381 173.652,269.196 172.976 C 269.600 172.640,335.353 191.658,336.191 192.353 C 336.670 192.751,350.667 176.686,350.667 175.737 C 350.667 175.378,349.566 174.376,347.844 173.164 C 346.291 172.072,345.129 171.086,345.260 170.973 C 347.294 169.225,354.236 162.767,354.435 162.438 C 354.821 161.800,354.689 161.664,350.837 158.731 L 347.345 156.073 351.821 152.676 C 358.022 147.970,357.875 148.751,353.233 145.176 C 350.416 143.008,350.308 142.876,350.528 141.875 C 350.654 141.302,353.037 129.884,355.824 116.503 L 360.892 92.172 353.069 68.669 C 348.766 55.743,345.040 44.929,344.789 44.640 C 344.538 44.350,344.432 44.012,344.555 43.890 C 345.445 42.999,337.983 48.503,285.000 87.820 M55.121 44.458 C 54.560 45.099,39.252 91.361,39.279 92.333 C 39.292 92.792,41.634 104.329,44.485 117.972 C 47.335 131.614,49.667 142.821,49.667 142.876 C 49.667 142.931,48.167 144.112,46.333 145.500 C 44.500 146.888,43.001 148.206,43.001 148.429 C 43.002 148.651,45.096 150.408,47.654 152.333 C 50.212 154.258,52.312 155.924,52.319 156.035 C 52.327 156.146,50.758 157.466,48.833 158.969 C 46.908 160.471,45.333 161.828,45.333 161.984 C 45.333 162.299,48.096 164.988,52.231 168.696 L 54.961 171.146 52.158 173.156 C 48.665 175.661,48.661 175.555,52.417 179.931 C 54.112 181.907,57.298 185.636,59.495 188.219 C 62.590 191.857,63.565 192.812,63.828 192.459 C 64.386 191.708,130.059 172.634,130.584 173.070 C 130.916 173.345,131.246 173.232,131.929 172.607 C 132.426 172.151,142.487 163.625,154.286 153.660 L 175.738 135.542 175.561 134.225 C 175.464 133.501,175.185 132.717,174.942 132.484 C 174.250 131.819,55.854 44.002,55.667 44.014 C 55.575 44.020,55.330 44.220,55.121 44.458 M175.957 315.917 C 175.553 316.433,175.561 316.452,176.031 316.086 C 176.441 315.766,181.943 315.651,200.031 315.583 L 223.500 315.495 199.957 315.414 C 177.877 315.338,176.387 315.370,175.957 315.917 " stroke="none" fill="#743c0c" fill-rule="evenodd"></path><path id="path4" d="M55.222 43.889 C 55.100 44.011,55.002 44.274,55.005 44.472 C 55.008 44.671,55.146 44.618,55.313 44.355 C 55.576 43.939,55.696 43.939,56.225 44.355 C 56.782 44.793,56.795 44.784,56.376 44.250 C 55.888 43.628,55.580 43.531,55.222 43.889 M175.712 134.640 C 175.687 135.084,175.410 135.759,175.096 136.140 C 174.539 136.816,174.544 136.815,175.291 136.128 C 175.810 135.652,176.009 135.166,175.908 134.628 L 175.757 133.833 175.712 134.640 M268.261 173.012 C 268.758 173.549,269.105 173.706,269.261 173.467 C 269.392 173.265,269.725 173.014,270.000 172.910 C 270.408 172.754,270.396 172.714,269.936 172.693 C 269.626 172.679,269.274 172.826,269.153 173.022 C 269.010 173.254,268.686 173.172,268.217 172.784 C 267.576 172.255,267.581 172.279,268.261 173.012 M174.479 317.417 L 173.500 318.500 174.583 317.521 C 175.179 316.983,175.667 316.495,175.667 316.438 C 175.667 316.180,175.392 316.407,174.479 317.417 " stroke="none" fill="#914c17" fill-rule="evenodd"></path></g></svg>